<?xml version="1.0" encoding="UTF-8" standalone="no"?>
<!-- Created with Inkscape (http://www.inkscape.org/) -->

<svg
   width="16"
   height="32"
   viewBox="0 0 16 32"
   version="1.1"
   id="svg1"
   xml:space="preserve"
   xmlns="http://www.w3.org/2000/svg"
   xmlns:svg="http://www.w3.org/2000/svg"><defs
     id="defs1" /><g
     id="layer1"><path
       id="rect1"
       style="opacity:1;fill:#090912;fill-opacity:1;fill-rule:evenodd;stroke:none;stroke-width:0.960005;stroke-linecap:round"
       d="M 12,2 V 3 H 11 V 4 H 10 V 5 H 9 V 6 H 8 V 7 H 7 V 8 H 6 V 9 H 5 v 1 H 4 v 1 H 3 v 1 H 2 v 1 H 1 v 1 H 0 v 4 h 1 v 1 h 1 v 1 h 1 v 1 h 1 v 1 h 1 v 1 h 1 v 1 h 1 v 1 h 1 v 1 h 1 v 1 h 1 v 1 h 1 v 1 h 1 v 1 h 3 v -1 h 1 v -8 h -1 v -1 h -1 v -1 h -1 v -1 h -1 v -1 h -1 v -2 h 1 v -1 h 1 v -1 h 1 v -1 h 1 v -1 h 1 V 3 H 15 V 2 Z m 0,3 h 2 v 5 h -1 v 1 h -1 v 1 h -1 v 1 h -1 v 1 H 9 v 1 H 8 v 2 h 1 v 1 h 1 v 1 h 1 v 1 h 1 v 1 h 1 v 1 h 1 v 5 H 12 V 26 H 11 V 25 H 10 V 24 H 9 V 23 H 8 V 22 H 7 V 21 H 6 V 20 H 5 V 19 H 4 V 18 H 3 V 17 H 2 V 15 H 3 V 14 H 4 V 13 H 5 V 12 H 6 V 11 H 7 V 10 H 8 V 9 H 9 V 8 h 1 V 7 h 1 V 6 h 1 z" /><path
       id="rect3"
       style="opacity:1;fill:#f3f3fc;fill-opacity:1;fill-rule:evenodd;stroke:none;stroke-width:0.960004;stroke-linecap:round"
       d="M 12,5 V 6 H 11 V 7 H 10 V 8 H 9 V 9 H 8 v 1 H 7 v 1 H 6 v 1 H 5 v 1 H 4 v 1 H 3 v 1 H 2 v 1 1 h 1 v 1 h 1 v 1 h 1 v 1 h 1 v 1 h 1 v 1 h 1 v 1 h 1 v 1 h 1 v 1 h 1 v 1 h 1 v 1 h 2 V 23 22 H 13 V 21 H 12 V 20 H 11 V 19 H 10 V 18 H 9 V 17 H 8 v -1 -1 h 1 v -1 h 1 v -1 h 1 v -1 h 1 v -1 h 1 v -1 h 1 V 9 5 Z" /></g></svg>
