<?xml version="1.0" encoding="UTF-8" standalone="no"?>
<!-- Created with Inkscape (http://www.inkscape.org/) -->

<svg
   width="16"
   height="16"
   viewBox="0 0 16 16"
   version="1.1"
   id="svg1"
   xml:space="preserve"
   sodipodi:docname="Unnamed document 1"
   xmlns:inkscape="http://www.inkscape.org/namespaces/inkscape"
   xmlns:sodipodi="http://sodipodi.sourceforge.net/DTD/sodipodi-0.dtd"
   xmlns="http://www.w3.org/2000/svg"
   xmlns:svg="http://www.w3.org/2000/svg"><sodipodi:namedview
     id="namedview1"
     pagecolor="#ffffff"
     bordercolor="#000000"
     borderopacity="0.25"
     inkscape:showpageshadow="2"
     inkscape:pageopacity="0.0"
     inkscape:pagecheckerboard="0"
     inkscape:deskcolor="#d1d1d1"
     inkscape:document-units="px"><inkscape:page
       x="0"
       y="0"
       width="16"
       height="16"
       id="page2"
       margin="0"
       bleed="0" /></sodipodi:namedview><defs
     id="defs1" /><g
     inkscape:label="Layer 1"
     inkscape:groupmode="layer"
     id="layer1"><path
       id="rect1-2"
       style="fill:#090912;fill-opacity:1;fill-rule:evenodd;stroke:none;stroke-width:0.960004;stroke-linecap:round"
       d="M 7,0 V 1 H 6 V 2 H 5 V 3 H 4 V 4 H 3 V 5 H 2 V 6 H 1 V 7 H 0 v 2 h 1 v 1 h 1 v 1 h 1 v 1 h 1 v 1 h 1 v 1 h 1 v 1 h 1 v 1 h 2 v -1 h 1 v -1 h 1 v -1 h 1 v -1 h 1 v -1 h 1 v -1 h 1 V 9 h 1 V 7 H 15 V 6 H 14 V 5 H 13 V 4 H 12 V 3 H 11 V 2 H 10 V 1 H 9 V 0 Z m 0,3 h 2 v 1 h 1 v 1 h 1 v 1 h 1 v 1 h 1 v 2 h -1 v 1 h -1 v 1 h -1 v 1 H 9 v 1 H 7 V 12 H 6 V 11 H 5 V 10 H 4 V 9 H 3 V 7 H 4 V 6 H 5 V 5 H 6 V 4 h 1 z" /><path
       id="rect3"
       style="fill:#f3f3fc;fill-opacity:1;fill-rule:evenodd;stroke:none;stroke-width:0.960001;stroke-linecap:round"
       d="M 7,3 V 4 H 6 V 5 H 5 V 6 H 4 V 7 H 3 v 1 1 h 1 v 1 h 1 v 1 h 1 v 1 h 1 v 1 h 2 v -1 h 1 v -1 h 1 v -1 h 1 V 9 h 1 V 8 7 H 12 V 6 H 11 V 5 H 10 V 4 H 9 V 3 Z" /></g></svg>
