<?xml version="1.0" encoding="UTF-8" standalone="no"?>
<!-- Created with Inkscape (http://www.inkscape.org/) -->

<svg
   width="1536"
   height="640"
   viewBox="0 0 406.39997 169.33334"
   version="1.1"
   id="svg1"
   xml:space="preserve"
   xmlns="http://www.w3.org/2000/svg"
   xmlns:svg="http://www.w3.org/2000/svg"><defs
     id="defs1" /><g
     id="layer4"
     style="display:inline;opacity:1"
     transform="matrix(0.96639663,-0.25705215,0.25705191,0.96639753,-18.341228,22.302289)"><g
       id="layer1"
       style="display:inline"
       transform="matrix(0.98327749,0,0,0.98327749,5.1239456,36.690726)"><path
         id="path8"
         style="font-variation-settings:normal;display:inline;opacity:1;fill:#869496;fill-opacity:1;stroke:none;stroke-width:2.0137;stroke-linecap:square;stroke-linejoin:round;stroke-miterlimit:4;stroke-dasharray:none;stroke-dashoffset:0;stroke-opacity:1;paint-order:normal"
         d="m 84.782711,40.476068 c -2.214953,3.073303 -4.860029,6.533275 -7.429736,9.80142 8.077236,15.532331 16.154467,31.064663 24.229355,46.59822 6.95719,2.422583 13.91437,4.845192 20.87203,7.266442 z m -9.076256,11.8841 c -3.833587,4.826718 -6.925007,8.569924 -7.081904,8.759518 L 92.21518,118.85961 c 2.41623,-6.93767 4.830991,-13.87584 7.247078,-20.813556 C 91.542066,82.818253 83.624084,67.589301 75.706455,52.360168 Z" /><path
         id="path3"
         style="display:inline;opacity:1;fill:#869496;fill-opacity:1;stroke-width:0.268494"
         d="m 87.579049,1.5890312 c 0,0 -6.998312,0.3965351 -14.326671,-0.5271259 C 72.877549,1.0146571 71.825675,0.813697 70.621999,0.5748869 L 53.587801,9.2127253 37.550646,5.1716016 45.879758,-3.4824036 c -0.940628,-0.015705 -1.702703,-0.01975 -1.96339,-0.00343 -3.181904,0.199142 -5.903604,0.6936096 -7.912865,1.2805781 -0.861696,-1.0412313 -2.075129,-1.9326195 -3.417364,-1.9629212 -0.249465,-0.00566 -0.503285,0.018416 -0.760038,0.076821 -2.054039,0.4670119 -6.115231,2.7543342 -9.10264,6.722692 -2.987408,3.968362 -3.64102,9.8509597 -3.64102,9.8509597 0,0 4.200774,-4.6688172 8.40216,-6.2564212 0.535301,-0.202273 1.100897,-0.3763403 1.677768,-0.5277243 -1.74e-4,0.0029 -0.08865,1.8371843 1.264306,4.4492555 1.35405,2.614167 2.894512,3.17417 2.894512,3.17417 0,0 0.606501,-1.86757 4.060984,-3.034956 0,0 3.799674,-0.9535136 6.557783,1.804126 0.189382,0.189341 0.382051,0.399207 0.573527,0.603928 -0.03702,-0.0088 -2.270225,-0.534924 -3.939797,-0.141931 -1.683489,0.396263 -3.413909,1.26604 -4.503109,2.883638 -1.0892,1.617597 -1.504657,3.917117 -1.504641,4.115174 0,0 -1.337976,0.352286 -2.831998,-1.374877 -1.494023,-1.727164 -1.213241,-3.408383 -1.213241,-3.408383 0,0 -2.678545,2.332847 -3.285187,5.180596 -0.606645,2.847753 -0.635504,4.857058 0.531639,5.463844 1.167139,0.606786 2.941404,0.910585 6.582676,0.373413 3.718865,-0.54862 5.835277,-1.727694 5.835277,-1.727694 0,0 0.60668,1.260147 0.980343,3.220811 0.373636,1.96068 0.326522,3.9676 0.326522,3.9676 0,0 3.253789,-1.50263 4.999908,-2.518737 2.948061,-1.715549 4.25028,-2.801939 6.066366,-4.40385 1.816087,-1.601914 4.414808,-4.39993 4.414808,-4.39993 0,0 -0.699294,2.181255 -1.589108,3.576072 -0.825542,1.294066 -1.840045,2.59352 -1.840045,2.59352 l -0.0073,0.0051 c 1.718033,3.140781 3.314018,5.984717 4.939415,9.168326 0.340726,0.667369 0.808267,1.760027 1.314638,2.988328 4.542945,-3.589847 9.792138,-7.754726 13.351497,-10.639795 1.162926,-0.942619 2.712717,-2.221035 4.161089,-3.411304 -2.909489,-5.64126 -5.991136,-10.677126 -6.822239,-12.116333 -0.625734,-1.083574 -1.446097,-2.1163751 -2.361272,-3.0546301 -0.02027,-7.1e-4 -0.77816,-0.032013 -1.456269,-0.071933 -0.611099,-0.03597 -1.196696,-0.2095441 -1.196696,-0.2095441 1.30522,-0.05547 1.982544,-0.1878318 3.159196,-0.3909088 1.071268,-0.184888 2.97975,-0.6754392 5.287324,-1.2910052 C 79.854988,5.4852378 87.579049,1.589032 87.579049,1.5890312 Z M 64.98407,-0.62292254 c -0.3955,-0.0914032 -0.885561,-0.19951504 -1.135828,-0.26459498 -1.841464,-0.47885718 -7.058134,-2.07732718 -11.22612,-2.32909368 -0.09097,-0.0055 -0.172817,-0.00819 -0.263425,-0.013511 l -5.52863,5.7454772 6.183611,1.5588544 z" /></g><g
       id="layer3"
       transform="translate(7.6464394,37.12806)"><path
         style="font-variation-settings:normal;display:inline;opacity:1;fill:#2da0c8;fill-opacity:1;stroke:none;stroke-width:1.34898;stroke-linecap:square;stroke-linejoin:miter;stroke-miterlimit:4;stroke-dasharray:none;stroke-dashoffset:0;stroke-opacity:1;paint-order:stroke fill markers"
         d="m 97.323989,97.32749 -7.81191,22.43942 28.231651,19.17381 2.01967,-33.8013 z"
         id="path29" /><path
         style="display:inline;opacity:1;fill:#2da0c8;fill-opacity:1;stroke-width:0.264004"
         d="m 59.716415,73.847371 c 0,0 -4.958117,-7.068623 -7.529189,-12.943974 -2.571063,-5.875352 -2.663553,-13.862453 -2.663553,-13.862453 0,0 14.730701,-11.558221 22.122765,-17.549921 7.392064,-5.991701 22.2231,-18.40332 22.2231,-18.40332 0,0 -9.002309,16.303767 -14.693571,24.474972 -5.691259,8.171207 -17.074003,21.943056 -17.074003,21.943056 0,0 -1.376818,3.121517 -2.019025,8.170891 -0.642208,5.049375 -0.366524,8.170749 -0.366524,8.170749 z"
         id="path4" /><path
         style="font-variation-settings:normal;display:inline;opacity:1;vector-effect:none;fill:#2da0c8;fill-opacity:1;stroke-width:0.264004;stroke-linecap:butt;stroke-linejoin:miter;stroke-miterlimit:4;stroke-dasharray:none;stroke-dashoffset:0;stroke-opacity:1;-inkscape-stroke:none;stop-color:#000000;stop-opacity:1"
         d="m 38.962256,3.3422798 9.455158,-9.8240323 24.46633,0.9159616 -22.996359,11.6613087 z"
         id="path5" /></g></g><g
     id="g48"
     transform="translate(20.505281,28.429889)"><g
       id="g47"><path
         style="font-size:63.5px;font-family:'Do Hyeon';-inkscape-font-specification:'Do Hyeon, Normal';display:inline;fill:#3773b9;stroke-width:4.7625;stroke-linecap:square;paint-order:stroke fill markers"
         d="m 354.60847,47.314942 c -1.10067,0 -1.98967,0.14817 -2.667,0.4445 -0.67733,0.254 -1.2065,0.61384 -1.5875,1.0795 -0.33867,0.46567 -0.5715,1.016 -0.6985,1.651 -0.127,0.635 -0.1905,1.3335 -0.1905,2.0955 v 19.812 h -7.4295 v -19.7485 c 0,-0.762 -0.0635,-1.4605 -0.1905,-2.0955 -0.127,-0.67733 -0.381,-1.24883 -0.762,-1.7145 -0.33867,-0.46566 -0.84667,-0.8255 -1.524,-1.0795 -0.67733,-0.29633 -1.5875,-0.4445 -2.7305,-0.4445 h -1.524 c -1.10067,0 -2.01083,0.14817 -2.7305,0.4445 -0.67733,0.254 -1.2065,0.61384 -1.5875,1.0795 -0.381,0.46567 -0.65617,1.03717 -0.8255,1.7145 -0.127,0.635 -0.1905,1.3335 -0.1905,2.0955 v 19.7485 h -7.4295 v -32.3215 h 7.4295 v 0.9525 c 1.651,-0.635 3.40783,-0.9525 5.2705,-0.9525 h 2.794 c 1.69333,0 3.19617,0.254 4.5085,0.762 1.31233,0.508 2.43417,1.2065 3.3655,2.0955 1.016,-0.889 2.20133,-1.5875 3.556,-2.0955 1.35467,-0.508 2.87867,-0.762 4.572,-0.762 h 3.302 c 1.86267,0 3.51367,0.3175 4.953,0.9525 1.43933,0.635 2.62467,1.48167 3.556,2.54 0.97367,1.016 1.69333,2.20134 2.159,3.556 0.508,1.31234 0.762,2.64584 0.762,4.0005 v 21.2725 h -7.366 v -19.7485 c 0,-0.762 -0.0635,-1.4605 -0.1905,-2.0955 -0.127,-0.67733 -0.381,-1.24883 -0.762,-1.7145 -0.381,-0.46566 -0.91017,-0.8255 -1.5875,-1.0795 -0.67733,-0.29633 -1.56633,-0.4445 -2.667,-0.4445 z"
         id="path44" /><path
         style="font-size:63.5px;font-family:'Do Hyeon';-inkscape-font-specification:'Do Hyeon, Normal';display:inline;fill:#3773b9;stroke-width:4.7625;stroke-linecap:square;paint-order:stroke fill markers"
         d="m 303.39568,46.044864 c 0.59267,-0.97366 1.37583,-1.82033 2.3495,-2.54 1.016,-0.762 2.11667,-1.397 3.302,-1.905 1.22767,-0.508 2.51883,-0.889 3.8735,-1.143 1.35467,-0.254 2.70933,-0.381 4.064,-0.381 v 7.874 c -1.524,0 -3.09033,0.3175 -4.699,0.9525 -1.60867,0.59267 -3.09033,1.397 -4.445,2.413 -1.31233,0.97367 -2.39183,2.07434 -3.2385,3.302 -0.80433,1.22767 -1.2065,2.984507 -1.2065,4.212167 v 13.567911 h -7.874 v -32.32158 h 7.874 z"
         id="path43" /><path
         id="path45"
         style="font-size:63.5px;font-family:'Do Hyeon';-inkscape-font-specification:'Do Hyeon, Normal';display:inline;fill:#3773b9;stroke-width:4.7625;stroke-linecap:square;paint-order:stroke fill markers"
         d="m 265.20053,40.076112 9.74474,32.321329 -3.16788,10.922021 h 6.98614 l 12.85296,-43.24335 h -7.11223 l -6.12974,20.764419 -6.12532,-20.764419 z" /><path
         style="font-size:63.5px;font-family:'Do Hyeon';-inkscape-font-specification:'Do Hyeon, Normal';display:inline;fill:#3773b9;stroke-width:4.7625;stroke-linecap:square;paint-order:stroke fill markers"
         d="m 253.77043,72.397442 h -7.1755 l -6.1595,-20.3835 -6.0325,20.3835 h -7.112 l -9.779,-32.3215 h 7.0485 l 6.223,20.5105 6.0325,-20.5105 h 7.112 l 6.1595,20.3835 6.096,-20.3835 h 7.0485 z"
         id="text2" /></g><g
       id="g46"><path
         id="path1"
         style="font-size:63.5px;font-family:'Do Hyeon';-inkscape-font-specification:'Do Hyeon, Normal';display:inline;fill:#414646;stroke-width:4.7625;stroke-linecap:square;paint-order:stroke fill markers"
         d="m 197.00108,40.076112 c -1.27,0 -2.54011,0.31739 -3.81011,0.95239 -1.27,0.59267 -2.3915,1.41852 -3.36517,2.47685 -0.97367,1.05834 -1.75705,2.28598 -2.34972,3.68298 -0.59267,1.35467 -0.88884,2.8148 -0.88884,4.38113 v 9.71569 c 0,1.29343 0.18501,2.86863 0.82528,4.44469 0.55033,1.35466 1.29127,2.51914 2.2226,3.49281 0.97367,0.97366 2.09568,1.75654 3.36568,2.34921 1.27,0.55033 2.62451,0.82579 4.06384,0.82579 h 24.82949 l -7.23987,-7.11223 H 198.7157 c -1.397,0 -2.51901,-0.3174 -3.36568,-0.9524 -0.84667,-0.635 -1.26969,-1.71456 -1.26969,-3.23856 v -1.5875 h 20.57393 v -8.19123 c 0,-1.27 -0.25422,-2.56133 -0.76222,-3.87367 -0.46567,-1.35466 -1.14292,-2.56108 -2.03192,-3.61941 -0.84666,-1.10067 -1.92623,-1.98969 -3.23856,-2.66702 -1.27,-0.71967 -2.73013,-1.07952 -4.38113,-1.07952 z m 1.65106,7.36595 h 3.93723 c 1.43933,0 2.58207,0.5504 3.42873,1.65107 0.84667,1.05833 1.2702,2.41283 1.2702,4.06383 v 0.31781 h -13.14441 v -0.31781 c 0,-0.762 0.10563,-1.48119 0.31729,-2.15852 0.254,-0.71967 0.5714,-1.33375 0.9524,-1.84175 0.381,-0.508 0.847,-0.91031 1.39733,-1.20665 0.55034,-0.33866 1.1639,-0.50798 1.84123,-0.50798 z" /><path
         id="path37"
         style="font-size:63.5px;font-family:'Do Hyeon';-inkscape-font-specification:'Do Hyeon, Normal';display:inline;fill:#414646;stroke-width:4.7625;stroke-linecap:square;paint-order:stroke fill markers"
         d="m 175.53831,29.154092 v 11.68404 c -1.43933,-0.508 -3.04807,-0.76223 -4.82607,-0.76223 h -2.53989 c -1.86267,0 -3.53508,0.29617 -5.01675,0.88884 -1.43933,0.55033 -2.68821,1.33372 -3.74654,2.34972 -1.016,1.016 -1.79888,2.24365 -2.34921,3.68298 -0.55034,1.43934 -0.82579,3.06929 -0.82579,4.88963 v 8.69921 c 0,1.778 0.27545,3.40796 0.82579,4.88962 0.55033,1.43934 1.33321,2.68821 2.34921,3.74654 1.05833,1.016 2.30721,1.7994 3.74654,2.34973 1.48167,0.55033 3.15408,0.82527 5.01675,0.82527 h 14.47767 v -43.24335 z m -7.36596,18.22421 h 2.53989 c 1.35467,0 2.4974,0.44477 3.42873,1.33377 0.93133,0.84666 1.39734,1.96817 1.39734,3.36517 v 13.01781 h -7.36596 c -1.35467,0 -2.51915,-0.44477 -3.49281,-1.33377 -0.93134,-0.889 -1.39682,-2.03173 -1.39682,-3.42873 v -8.25531 c 0,-1.397 0.46548,-2.51851 1.39682,-3.36517 0.97366,-0.889 2.13814,-1.33377 3.49281,-1.33377 z" /><path
         id="path38"
         style="font-size:63.5px;font-family:'Do Hyeon';-inkscape-font-specification:'Do Hyeon, Normal';display:inline;fill:#414646;stroke-width:4.7625;stroke-linecap:square;paint-order:stroke fill markers"
         d="m 136.86676,40.075902 c -1.82034,0 -3.42906,0.29617 -4.82606,0.88884 -1.397,0.55033 -2.56096,1.29127 -3.49229,2.2226 -0.93133,0.93133 -1.65104,2.0109 -2.15904,3.23856 -0.46567,1.22767 -0.76235,2.519 -0.88935,3.87367 h 7.36647 c 0.254,-1.016 0.74071,-1.75694 1.46038,-2.22261 0.71967,-0.508 1.92608,-0.76222 3.61942,-0.76222 h 1.5875 c 1.143,0 2.05325,0.1486 2.73058,0.44493 0.67733,0.254 1.18527,0.61386 1.52394,1.07952 0.33866,0.46567 0.57166,1.03678 0.69866,1.71411 0.127,0.635 0.19017,1.33348 0.19017,2.09548 v 0.6351 h -10.85825 c -1.35467,0 -2.58231,0.25423 -3.68298,0.76223 -1.05833,0.46567 -1.94735,1.12169 -2.66702,1.96835 -0.71967,0.80434 -1.27006,1.77827 -1.65106,2.92127 -0.381,1.143 -0.57154,2.37065 -0.57154,3.68298 0,1.35467 0.1693,2.62426 0.50797,3.80959 0.381,1.18533 0.9314,2.22244 1.65107,3.11144 0.762,0.84666 1.69348,1.54566 2.79414,2.09599 1.10067,0.508 2.34903,0.76171 3.74603,0.76171 h 18.03404 v -21.2726 c 0,-1.35467 -0.23248,-2.68794 -0.69815,-4.00027 -0.46567,-1.35467 -1.16415,-2.53986 -2.09548,-3.55586 -0.93133,-1.05833 -2.11704,-1.90541 -3.55637,-2.54041 -1.397,-0.635 -3.04767,-0.9524 -4.95267,-0.9524 z m -2.66702,19.30425 h 10.4774 v 6.47661 h -10.4774 c -0.55033,0 -1.05827,-0.25371 -1.52393,-0.76171 -0.42334,-0.55034 -0.63511,-1.37567 -0.63511,-2.47634 0,-1.05833 0.21177,-1.86295 0.63511,-2.41329 0.46566,-0.55033 0.9736,-0.82527 1.52393,-0.82527 z" /><path
         id="path36"
         style="font-size:63.5px;font-family:'Do Hyeon';-inkscape-font-specification:'Do Hyeon, Normal';display:inline;fill:#414646;stroke-width:4.7625;stroke-linecap:square;paint-order:stroke fill markers"
         d="m 105.62353,29.154292 7.23986,7.112227 v 36.131128 h 7.49309 V 29.154292 Z" /><path
         id="text1"
         style="font-size:63.5px;font-family:'Do Hyeon';-inkscape-font-specification:'Do Hyeon, Normal';display:inline;fill:#414646;stroke-width:4.7625;stroke-linecap:square;paint-order:stroke fill markers"
         d="m 81.177141,29.154092 v 22.225 0.50798 8.69921 c 0,1.778 0.275459,3.40796 0.825789,4.88962 0.55033,1.43934 1.333211,2.68821 2.349211,3.74654 1.05834,1.016 2.307211,1.7994 3.746541,2.34973 1.48167,0.55033 3.154078,0.82527 5.016748,0.82527 h 2.539897 c 1.86266,0 3.513862,-0.27494 4.953183,-0.82527 1.48167,-0.55033 2.73003,-1.33373 3.74603,-2.34973 1.05834,-1.05833 1.86295,-2.3072 2.41329,-3.74654 0.55033,-1.48166 0.82527,-3.11162 0.82527,-4.88962 v -8.69921 c 0,-1.82034 -0.27494,-3.45029 -0.82527,-4.88963 -0.55034,-1.43933 -1.35495,-2.66698 -2.41329,-3.68298 -1.016,-1.016 -2.26436,-1.79939 -3.74603,-2.34972 -1.439321,-0.59267 -3.090523,-0.88884 -4.953183,-0.88884 h -2.031918 c -1.73567,0 -3.386846,0.27546 -4.953186,0.82579 v -11.7476 z m 11.938289,18.22421 h 2.539897 c 1.35466,0 2.455463,0.44477 3.302123,1.33377 0.84667,0.84666 1.26969,1.96817 1.26969,3.36517 v 8.25531 c 0,1.397 -0.42302,2.53973 -1.26969,3.42873 -0.84666,0.889 -1.947463,1.33377 -3.302123,1.33377 H 93.11543 c -1.35467,0 -2.434232,-0.44477 -3.238562,-1.33377 -0.80433,-0.889 -1.206645,-2.03173 -1.206645,-3.42873 v -8.44548 c 0.0423,-1.31234 0.444645,-2.3919 1.206645,-3.23856 0.80433,-0.84667 1.883892,-1.27021 3.238562,-1.27021 z" /></g></g><rect
     style="fill:#000000;fill-opacity:0;stroke-width:4.7625;stroke-linejoin:round;paint-order:stroke markers fill"
     id="rect1"
     width="7.8740001"
     height="13.567913"
     x="329.61597"
     y="71.288696" /></svg>
