<?xml version="1.0" encoding="UTF-8" standalone="no"?>
<svg
   fill="none"
   viewBox="0 0 614 144"
   version="1.1"
   id="svg2"
   sodipodi:docname="nextjs.svg"
   width="614"
   height="144"
   inkscape:version="1.4 (86a8ad7, 2024-10-11)"
   xmlns:inkscape="http://www.inkscape.org/namespaces/inkscape"
   xmlns:sodipodi="http://sodipodi.sourceforge.net/DTD/sodipodi-0.dtd"
   xmlns="http://www.w3.org/2000/svg"
   xmlns:svg="http://www.w3.org/2000/svg">
  <defs
     id="defs2" />
  <sodipodi:namedview
     id="namedview2"
     pagecolor="#ffffff"
     bordercolor="#000000"
     borderopacity="0.25"
     inkscape:showpageshadow="2"
     inkscape:pageopacity="0.0"
     inkscape:pagecheckerboard="0"
     inkscape:deskcolor="#d1d1d1"
     inkscape:zoom="0.5"
     inkscape:cx="-165"
     inkscape:cy="-19"
     inkscape:window-width="1920"
     inkscape:window-height="1009"
     inkscape:window-x="-8"
     inkscape:window-y="-8"
     inkscape:window-maximized="1"
     inkscape:current-layer="svg2" />
  <rect
     style="display:inline;fill:#000000;fill-opacity:1;stroke:none;stroke-width:2.5;stroke-linecap:round"
     id="rect2"
     width="614"
     height="144"
     x="0"
     y="0" />
  <path
     fill="#000000"
     d="m 449.84029,32.35 h 68.5 v 12.7 h -27.2 v 66.6 h -13.6 v -66.6 h -27.7 z m -113,0 v 12.7 h -55 v 20.4 h 44.3 v 12.6 h -44.3 v 21 h 55 v 12.6 h -68.5 v -79.3 h 68.7 z m 34.3,0 h -17.8 l 63.8,79.4 h 17.9 l -32,-39.699999 32,-39.6 h -17.9 l -23,28.6 -23,-28.6 z m 18.3,56.700001 -9,-11 -27.1,33.699999 h 17.8 z"
     id="path1"
     style="fill:#ffffff;fill-opacity:1" />
  <path
     fill="#000000"
     d="m 268.84029,111.65 -64,-79.3 h -17 v 79.3 h 13.6 v -62.3 l 50.2,62.3 z m 252.6,-0.4 c -1,0 -1.8,-0.4 -2.5,-1 -0.7,-0.6 -1.1,-1.6 -1.1,-2.6 0,-1 0.3,-1.8 1,-2.5 0.7,-0.7 1.6,-1 2.6,-1 1,0 1.8,0.3 2.5,1 a 3.4,3.4 0 0 1 0.6,4.3 3.7,3.7 0 0 1 -3,1.8 z m 23.2,-33.5 h 6 v 23.3 c 0,2.1 -0.4,4 -1.3,5.5 a 9.1,9.1 0 0 1 -3.8,3.5 c -1.6,0.8 -3.5,1.3 -5.7,1.3 -2,0 -3.7,-0.4 -5.3,-1 -1.6,-0.6 -2.8,-1.8 -3.7,-3.2 -0.9,-1.3 -1.4,-3 -1.4,-5 h 6 c 0.1,0.8 0.3,1.6 0.7,2.2 0.4,0.6 1,1.2 1.6,1.5 0.7,0.4 1.5,0.5 2.4,0.5 1,0 1.8,-0.2 2.4,-0.6 a 4,4 0 0 0 1.6,-1.8 c 0.3,-0.8 0.5,-1.8 0.5,-3 v -23.1 z m 30.9,9.1 a 4.4,4.4 0 0 0 -2,-3.3 7.5,7.5 0 0 0 -4.3,-1.1 c -1.3,0 -2.4,0.200001 -3.3,0.5 -0.9,0.4 -1.6,1 -2,1.6 a 3.5,3.5 0 0 0 -0.3,4 c 0.3,0.5 0.7,0.9 1.3,1.2 l 1.8,1 2,0.5 3.2,0.8 c 1.3,0.3 2.5,0.7 3.7,1.2 a 13,13 0 0 1 3.2,1.8 8.1,8.1 0 0 1 3,6.5 c 0,2 -0.5,3.7 -1.5,5.1 a 10,10 0 0 1 -4.4,3.5 c -1.8,0.8 -4.1,1.2 -6.8,1.2 -2.6,0 -4.9,-0.4 -6.8,-1.2 -2,-0.8 -3.4,-2 -4.5,-3.5 a 10,10 0 0 1 -1.7,-5.6 h 6 a 5,5 0 0 0 3.5,4.6 c 1,0.4 2.2,0.6 3.4,0.6 1.3,0 2.5,-0.2 3.5,-0.6 1,-0.4 1.8,-1 2.4,-1.7 a 4,4 0 0 0 0.8,-2.4 c 0,-0.9 -0.2,-1.6 -0.7,-2.2 a 11,11 0 0 0 -2.1,-1.4 l -3.2,-1 -3.8,-1 c -2.8,-0.7 -5,-1.7 -6.6,-3.2 a 7.2,7.2 0 0 1 -2.4,-5.7 8,8 0 0 1 1.7,-5 10,10 0 0 1 4.3,-3.5 c 2,-0.8 4,-1.2 6.4,-1.2 2.3,0 4.4,0.4 6.2,1.2 1.8,0.8 3.2,2 4.3,3.4 1,1.4 1.5,3 1.5,5 h -5.8 z"
     id="path2"
     style="fill:#ffffff;fill-opacity:1" />
  <path
     d="m 77.994736,32.25 45.845554,79.4 H 32.157118 Z"
     fill="#ffffff"
     id="path1-0"
     style="stroke-width:1" />
</svg>
